<svg id="Layer_1" data-name="Layer 1" xmlns="http://www.w3.org/2000/svg" viewBox="0 0 24 24" stroke-width="1.5" width="24" height="24" color="#000000"><defs><style>.cls-637642e7c3a86d32eae6f1d0-1{fill:none;stroke:currentColor;stroke-miterlimit:10;}</style></defs><line class="cls-637642e7c3a86d32eae6f1d0-1" x1="11.05" y1="10.05" x2="18.68" y2="10.05"></line><line class="cls-637642e7c3a86d32eae6f1d0-1" x1="11.05" y1="13.86" x2="18.68" y2="13.86"></line><path class="cls-637642e7c3a86d32eae6f1d0-1" d="M22.5,10.05v10.5l-2.86-2.87H11.05a3.81,3.81,0,0,1-3.7-2.86,3.77,3.77,0,0,1-.12-1V10.05a3.82,3.82,0,0,1,3.82-3.82h7.63A3.82,3.82,0,0,1,22.5,10.05Z"></path><path class="cls-637642e7c3a86d32eae6f1d0-1" d="M16.77,5.27v1H11.05a3.82,3.82,0,0,0-3.82,3.82v2.86H4.36L1.5,15.77V5.27A3.82,3.82,0,0,1,5.32,1.45H13A3.82,3.82,0,0,1,16.77,5.27Z"></path></svg>